<svg fill="none" height="228" viewBox="0 0 280 228" width="280" xmlns="http://www.w3.org/2000/svg"><path d="m248.392 73.9459h-74.375v-45.9697c-.01-7.4171-3.309-14.5279-9.174-19.77256-5.865-5.24467-13.816-8.19494215-22.11-8.20364h-111.4485c-8.2941.00869785-16.2458 2.95897-22.11066 8.20364-5.86487 5.24466-9.16402024 12.35546-9.17374662 19.77256v62.32c-.01519778 5.5322 1.82504662 10.9418 5.28298662 15.5288 11.02532 18.979 61.87982 47.038 62.43112 47.325 1.0844.579 2.3206.89 3.5832.904 1.1299.007 2.2443-.236 3.2439-.707.9995-.471 1.8533-1.156 2.4854-1.994.632-.837 1.0226-1.802 1.1371-2.807s-.0507-2.02-.4809-2.955c-3.6886-8.893-6.5466-18.044-8.5446-27.36h36.5217v46.011c.011 7.413 3.312 14.519 9.178 19.757s13.817 8.179 22.106 8.178h73.594c-1.998 9.316-4.856 18.467-8.544 27.36-.43.935-.596 1.95-.481 2.955.114 1.005.505 1.969 1.137 2.807s1.486 1.523 2.485 1.994c1 .471 2.114.714 3.244.707 1.263-.014 2.499-.325 3.584-.904.551-.287 51.405-28.346 62.431-47.325 3.458-4.588 5.298-9.997 5.283-15.529v-62.32c-.01-7.417-3.309-14.5278-9.174-19.7725-5.865-5.2446-13.817-8.1949-22.111-8.2036zm-160.4188 15.4465c-8.8523 4.5713-18.9535 6.8474-29.1712 6.573h-.1378c-1.8276 0-3.5803-.6493-4.8726-1.8049s-2.0183-2.723-2.0183-4.3573.726-3.2017 2.0183-4.3573 3.045-1.8049 4.8726-1.8049h.1378c6.0822.1222 12.1294-.8559 17.7784-2.8756-4.6242-4.8924-8.2616-10.4666-10.7497-16.4735-.3258-.7553-.482-1.5606-.4598-2.3699.0222-.8092.2225-1.6067.5894-2.3467.3668-.7401.8931-1.4083 1.5487-1.9664.6557-.5582 1.4278-.9955 2.2724-1.2868s1.7451-.431 2.6501-.4111c.9049.0199 1.7966.199 2.6242.527.8276.3281 1.5748.7987 2.199 1.385s1.1131 1.2768 1.4389 2.0321c2.0442 5.0914 5.1984 9.7692 9.2796 13.7622 5.6275-6.1023 9.1401-13.5411 10.1066-21.4033h-39.4156c-1.8276 0-3.5803-.6492-4.8726-1.8048-1.2923-1.1557-2.0183-2.723-2.0183-4.3573s.726-3.2017 2.0183-4.3573c1.2923-1.1557 3.045-1.8049 4.8726-1.8049h21.6372v-10.8043c0-1.6343.726-3.2017 2.0183-4.3573s3.045-1.8049 4.8726-1.8049 3.5803.6493 4.8726 1.8049c1.2922 1.1556 2.0182 2.723 2.0182 4.3573v10.8043h21.5909c1.828 0 3.581.6492 4.873 1.8049 1.292 1.1556 2.018 2.723 2.018 4.3573s-.726 3.2016-2.018 4.3573c-1.292 1.1556-3.045 1.8048-4.873 1.8048h-3.721c-1.029 10.4374-5.453 20.3769-12.7247 28.5924 4.4827 1.7047 9.2807 2.6518 14.1497 2.7936-3.319 3.3532-5.655 7.3901-6.799 11.7491-6.592-.8287-12.9239-2.8559-18.6058-5.9567zm177.9218 74.8496c.037 3.179-1.057 6.287-3.124 8.874-.274.346-.505.718-.689 1.109-5.421 9.202-25.772 23.211-41.207 32.824 3.078-10.599 4.64-19.514 4.731-20.089.153-.874.092-1.767-.177-2.618-.27-.851-.742-1.639-1.384-2.312-.653-.672-1.456-1.214-2.359-1.589-.902-.375-1.883-.576-2.879-.588h-81.863c-4.635.003-9.082-1.639-12.364-4.566s-5.13-6.9-5.139-11.045v-62.32c.007-4.1494 1.853-8.1273 5.134-11.0614 3.281-2.9342 7.729-4.5849 12.369-4.5904h111.448c4.64.0055 9.089 1.6562 12.37 4.5904 3.281 2.9341 5.127 6.912 5.133 11.0614zm-48.328-22.968v-.021l-18.325-40.962-.037-.066c-.112-.2261-.241-.4457-.386-.6568-.087-.1397-.156-.2876-.252-.4109-.143-.1731-.296-.3391-.46-.497-.123-.1433-.255-.2804-.395-.4108-.156-.1282-.32-.2488-.491-.3616-.172-.1461-.353-.2833-.542-.4108-.157-.0945-.336-.1643-.501-.2465-.226-.1203-.459-.2286-.698-.3245l-.078-.037c-.17-.0616-.34-.0862-.51-.1314-.232-.0727-.468-.1331-.708-.1808-.225-.035-.452-.0597-.68-.0739-.218-.0253-.437-.0404-.657-.0452-.239 0-.459.0287-.712.0493-.252.0205-.418.0287-.624.0657-.252.0499-.501.113-.745.189-.16.0493-.326.0698-.487.1273l-.078.037c-.238.0951-.47.2035-.693.3245-.17.0822-.35.152-.506.2465s-.349.2506-.523.378c-.175.1273-.354.2382-.51.3779-.157.1397-.248.2712-.377.4108-.164.1644-.318.3372-.459.5177-.097.1273-.166.2752-.253.4108-.144.2152-.274.4377-.391.6657l-.036.066-18.321 40.961v.021l-9.234 20.639c-.354.754-.537 1.564-.538 2.383-.001.818.18 1.628.533 2.383s.871 1.44 1.523 2.014 1.426 1.026 2.275 1.33c.85.304 1.759.454 2.674.44.915-.013 1.818-.19 2.655-.519.838-.329 1.595-.804 2.225-1.397.631-.593 1.123-1.292 1.447-2.057l7.456-16.667h27.421l7.456 16.667c.325.765.817 1.464 1.448 2.057.63.593 1.386 1.068 2.224 1.397s1.741.506 2.656.519c.915.014 1.824-.136 2.673-.44.85-.304 1.624-.756 2.276-1.33s1.169-1.259 1.523-2.014c.353-.755.534-1.565.533-2.383-.001-.819-.184-1.629-.539-2.383zm-32.929-3.776 8.2-18.326 8.196 18.326z" fill="#fff"/></svg>